<svg width="137" height="75" viewBox="0 0 137 75" fill="none" xmlns="http://www.w3.org/2000/svg">
<path d="M61 15.9024V8.73438C61 5.56737 63.5674 3 66.7344 3H128.379C131.546 3 134.113 5.56737 134.113 8.73438V48.8751C134.113 52.0421 131.546 54.6094 128.379 54.6094H118.344L121.698 70.2603C121.991 71.6282 120.351 72.563 119.323 71.6141L104.008 57.4766H66.7344C63.5674 57.4766 61 54.9093 61 51.7422V48.8751" stroke="url(#paint0_angular_11007_1620)" stroke-width="4.30079"/>
<path d="M15.6152 37.5723V41H4.87793V37.5723H15.6152ZM6.29883 19.6719V41H1.9043V19.6719H6.29883ZM22.3242 25.1504V41H18.0908V25.1504H22.3242ZM17.8271 21.0195C17.8271 20.4043 18.042 19.8965 18.4717 19.4961C18.9014 19.0957 19.4775 18.8955 20.2002 18.8955C20.9131 18.8955 21.4844 19.0957 21.9141 19.4961C22.3535 19.8965 22.5732 20.4043 22.5732 21.0195C22.5732 21.6348 22.3535 22.1426 21.9141 22.543C21.4844 22.9434 20.9131 23.1436 20.2002 23.1436C19.4775 23.1436 18.9014 22.9434 18.4717 22.543C18.042 22.1426 17.8271 21.6348 17.8271 21.0195ZM29.9414 28.5342V41H25.7227V25.1504H29.6777L29.9414 28.5342ZM29.3262 32.5186H28.1836C28.1836 31.3467 28.335 30.292 28.6377 29.3545C28.9404 28.4072 29.3652 27.6016 29.9121 26.9375C30.459 26.2637 31.1084 25.751 31.8604 25.3994C32.6221 25.0381 33.4717 24.8574 34.4092 24.8574C35.1514 24.8574 35.8301 24.9648 36.4453 25.1797C37.0605 25.3945 37.5879 25.7363 38.0273 26.2051C38.4766 26.6738 38.8184 27.2939 39.0527 28.0654C39.2969 28.8369 39.4189 29.7793 39.4189 30.8926V41H35.1709V30.8779C35.1709 30.1748 35.0732 29.6279 34.8779 29.2373C34.6826 28.8467 34.3945 28.5732 34.0137 28.417C33.6426 28.251 33.1836 28.168 32.6367 28.168C32.0703 28.168 31.5771 28.2803 31.1572 28.5049C30.7471 28.7295 30.4053 29.042 30.1318 29.4424C29.8682 29.833 29.668 30.292 29.5312 30.8193C29.3945 31.3467 29.3262 31.9131 29.3262 32.5186ZM51.1963 36.6201C51.1963 36.3174 51.1084 36.0439 50.9326 35.7998C50.7568 35.5557 50.4297 35.3311 49.9512 35.126C49.4824 34.9111 48.8037 34.7158 47.915 34.54C47.1143 34.3643 46.3672 34.1445 45.6738 33.8809C44.9902 33.6074 44.3945 33.2803 43.8867 32.8994C43.3887 32.5186 42.998 32.0693 42.7148 31.5518C42.4316 31.0244 42.29 30.4238 42.29 29.75C42.29 29.0859 42.4316 28.4609 42.7148 27.875C43.0078 27.2891 43.4229 26.7715 43.96 26.3223C44.5068 25.8633 45.1709 25.5068 45.9521 25.2529C46.7432 24.9893 47.6318 24.8574 48.6182 24.8574C49.9951 24.8574 51.1768 25.0771 52.1631 25.5166C53.1592 25.9561 53.9209 26.5615 54.4482 27.333C54.9854 28.0947 55.2539 28.9639 55.2539 29.9404H51.0352C51.0352 29.5303 50.9473 29.1641 50.7715 28.8418C50.6055 28.5098 50.3418 28.251 49.9805 28.0654C49.6289 27.8701 49.1699 27.7725 48.6035 27.7725C48.1348 27.7725 47.7295 27.8555 47.3877 28.0215C47.0459 28.1777 46.7822 28.3926 46.5967 28.666C46.4209 28.9297 46.333 29.2227 46.333 29.5449C46.333 29.7891 46.3818 30.0088 46.4795 30.2041C46.5869 30.3896 46.7578 30.5605 46.9922 30.7168C47.2266 30.873 47.5293 31.0195 47.9004 31.1562C48.2812 31.2832 48.75 31.4004 49.3066 31.5078C50.4492 31.7422 51.4697 32.0498 52.3682 32.4307C53.2666 32.8018 53.9795 33.3096 54.5068 33.9541C55.0342 34.5889 55.2979 35.4238 55.2979 36.459C55.2979 37.1621 55.1416 37.8066 54.8291 38.3926C54.5166 38.9785 54.0674 39.4912 53.4814 39.9307C52.8955 40.3604 52.1924 40.6973 51.3721 40.9414C50.5615 41.1758 49.6484 41.293 48.6328 41.293C47.1582 41.293 45.9082 41.0293 44.8828 40.502C43.8672 39.9746 43.0957 39.3057 42.5684 38.4951C42.0508 37.6748 41.792 36.835 41.792 35.9756H45.791C45.8105 36.5518 45.957 37.0156 46.2305 37.3672C46.5137 37.7188 46.8701 37.9727 47.2998 38.1289C47.7393 38.2852 48.2129 38.3633 48.7207 38.3633C49.2676 38.3633 49.7217 38.29 50.083 38.1436C50.4443 37.9873 50.7178 37.7822 50.9033 37.5283C51.0986 37.2646 51.1963 36.9619 51.1963 36.6201Z" fill="white"/>
<path d="M78.1348 33.9248H82.5146C82.4268 35.3604 82.0312 36.6348 81.3281 37.748C80.6348 38.8613 79.6631 39.7305 78.4131 40.3555C77.1729 40.9805 75.6787 41.293 73.9307 41.293C72.5635 41.293 71.3379 41.0586 70.2539 40.5898C69.1699 40.1113 68.2422 39.4277 67.4707 38.5391C66.709 37.6504 66.1279 36.5762 65.7275 35.3164C65.3271 34.0566 65.127 32.6455 65.127 31.083V29.6035C65.127 28.041 65.332 26.6299 65.7422 25.3701C66.1621 24.1006 66.7578 23.0215 67.5293 22.1328C68.3105 21.2441 69.2432 20.5605 70.3271 20.082C71.4111 19.6035 72.6221 19.3643 73.96 19.3643C75.7373 19.3643 77.2363 19.6865 78.457 20.3311C79.6875 20.9756 80.6396 21.8643 81.3135 22.9971C81.9971 24.1299 82.4072 25.4189 82.5439 26.8643H78.1494C78.1006 26.0049 77.9297 25.2773 77.6367 24.6816C77.3438 24.0762 76.8994 23.6221 76.3037 23.3193C75.7178 23.0068 74.9365 22.8506 73.96 22.8506C73.2275 22.8506 72.5879 22.9873 72.041 23.2607C71.4941 23.5342 71.0352 23.9492 70.6641 24.5059C70.293 25.0625 70.0146 25.7656 69.8291 26.6152C69.6533 27.4551 69.5654 28.4414 69.5654 29.5742V31.083C69.5654 32.1865 69.6484 33.1582 69.8145 33.998C69.9805 34.8281 70.2344 35.5312 70.5762 36.1074C70.9277 36.6738 71.377 37.1035 71.9238 37.3965C72.4805 37.6797 73.1494 37.8213 73.9307 37.8213C74.8486 37.8213 75.6055 37.6748 76.2012 37.3818C76.7969 37.0889 77.251 36.6543 77.5635 36.0781C77.8857 35.502 78.0762 34.7842 78.1348 33.9248ZM89.2529 18.5V41H85.0342V18.5H89.2529ZM88.6523 32.5186H87.4951C87.5049 31.415 87.6514 30.3994 87.9346 29.4717C88.2178 28.5342 88.623 27.7236 89.1504 27.04C89.6777 26.3467 90.3076 25.8096 91.04 25.4287C91.7822 25.0479 92.6025 24.8574 93.501 24.8574C94.2822 24.8574 94.9902 24.9697 95.625 25.1943C96.2695 25.4092 96.8213 25.7607 97.2803 26.249C97.749 26.7275 98.1104 27.3574 98.3643 28.1387C98.6182 28.9199 98.7451 29.8672 98.7451 30.9805V41H94.4971V30.9512C94.4971 30.248 94.3945 29.6963 94.1895 29.2959C93.9941 28.8857 93.7061 28.5977 93.3252 28.4316C92.9541 28.2559 92.4951 28.168 91.9482 28.168C91.3428 28.168 90.8252 28.2803 90.3955 28.5049C89.9756 28.7295 89.6387 29.042 89.3848 29.4424C89.1309 29.833 88.9453 30.292 88.8281 30.8193C88.7109 31.3467 88.6523 31.9131 88.6523 32.5186ZM110.508 37.4258V30.3652C110.508 29.8574 110.425 29.4229 110.259 29.0615C110.093 28.6904 109.834 28.4023 109.482 28.1973C109.141 27.9922 108.696 27.8896 108.149 27.8896C107.681 27.8896 107.275 27.9727 106.934 28.1387C106.592 28.2949 106.328 28.5244 106.143 28.8271C105.957 29.1201 105.864 29.4668 105.864 29.8672H101.646C101.646 29.1934 101.802 28.5537 102.114 27.9482C102.427 27.3428 102.881 26.8105 103.477 26.3516C104.072 25.8828 104.78 25.5166 105.601 25.2529C106.431 24.9893 107.358 24.8574 108.384 24.8574C109.614 24.8574 110.708 25.0625 111.665 25.4727C112.622 25.8828 113.374 26.498 113.921 27.3184C114.478 28.1387 114.756 29.1641 114.756 30.3945V37.1768C114.756 38.0459 114.81 38.7588 114.917 39.3154C115.024 39.8623 115.181 40.3408 115.386 40.751V41H111.123C110.918 40.5703 110.762 40.0332 110.654 39.3887C110.557 38.7344 110.508 38.0801 110.508 37.4258ZM111.064 31.3467L111.094 33.7344H108.735C108.179 33.7344 107.695 33.7979 107.285 33.9248C106.875 34.0518 106.538 34.2324 106.274 34.4668C106.011 34.6914 105.815 34.9551 105.688 35.2578C105.571 35.5605 105.513 35.8926 105.513 36.2539C105.513 36.6152 105.596 36.9424 105.762 37.2354C105.928 37.5186 106.167 37.7432 106.479 37.9092C106.792 38.0654 107.158 38.1436 107.578 38.1436C108.213 38.1436 108.765 38.0166 109.233 37.7627C109.702 37.5088 110.063 37.1963 110.317 36.8252C110.581 36.4541 110.718 36.1025 110.728 35.7705L111.841 37.5576C111.685 37.958 111.47 38.373 111.196 38.8027C110.933 39.2324 110.596 39.6377 110.186 40.0186C109.775 40.3896 109.282 40.6973 108.706 40.9414C108.13 41.1758 107.446 41.293 106.655 41.293C105.649 41.293 104.736 41.0928 103.916 40.6924C103.105 40.2822 102.461 39.7207 101.982 39.0078C101.514 38.2852 101.279 37.4648 101.279 36.5469C101.279 35.7168 101.436 34.9795 101.748 34.335C102.061 33.6904 102.52 33.1484 103.125 32.709C103.74 32.2598 104.507 31.9229 105.425 31.6982C106.343 31.4639 107.407 31.3467 108.618 31.3467H111.064ZM125.771 25.1504V28.1387H116.543V25.1504H125.771ZM118.828 21.2393H123.047V36.2246C123.047 36.6836 123.105 37.0352 123.223 37.2793C123.35 37.5234 123.535 37.6943 123.779 37.792C124.023 37.8799 124.331 37.9238 124.702 37.9238C124.966 37.9238 125.2 37.9141 125.405 37.8945C125.62 37.8652 125.801 37.8359 125.947 37.8066L125.962 40.9121C125.601 41.0293 125.21 41.1221 124.79 41.1904C124.37 41.2588 123.906 41.293 123.398 41.293C122.471 41.293 121.66 41.1416 120.967 40.8389C120.283 40.5264 119.756 40.0283 119.385 39.3447C119.014 38.6611 118.828 37.7627 118.828 36.6494V21.2393Z" fill="url(#paint1_linear_11007_1620)"/>
<defs>
<radialGradient id="paint0_angular_11007_1620" cx="0" cy="0" r="1" gradientUnits="userSpaceOnUse" gradientTransform="translate(91.1055 40.2735) rotate(51.0725) scale(47.913 48.8712)">
<stop stop-color="#485BFF"/>
<stop offset="1" stop-color="#FF59F8"/>
</radialGradient>
<linearGradient id="paint1_linear_11007_1620" x1="63.5" y1="13" x2="63.5" y2="48" gradientUnits="userSpaceOnUse">
<stop stop-color="#675AFB"/>
<stop offset="1" stop-color="#B110A1"/>
<stop offset="1" stop-color="#6310B1" stop-opacity="0"/>
</linearGradient>
</defs>
</svg>
